<?xml version="1.0" encoding="UTF-8" standalone="no"?>
<!-- Uploaded to: SVG Repo, www.svgrepo.com, Generator: SVG Repo Mixer Tools -->

<svg
   fill="#000000"
   height="800px"
   width="800px"
   version="1.1"
   id="Capa_1"
   viewBox="0 0 334.5 334.5"
   xml:space="preserve"
   sodipodi:docname="White sent.svg"
   inkscape:version="1.2.2 (732a01da63, 2022-12-09)"
   xmlns:inkscape="http://www.inkscape.org/namespaces/inkscape"
   xmlns:sodipodi="http://sodipodi.sourceforge.net/DTD/sodipodi-0.dtd"
   xmlns="http://www.w3.org/2000/svg"
   xmlns:svg="http://www.w3.org/2000/svg"><defs
   id="defs208" /><sodipodi:namedview
   id="namedview206"
   pagecolor="#505050"
   bordercolor="#ffffff"
   borderopacity="1"
   inkscape:showpageshadow="0"
   inkscape:pageopacity="0"
   inkscape:pagecheckerboard="1"
   inkscape:deskcolor="#505050"
   showgrid="false"
   inkscape:zoom="1.04625"
   inkscape:cx="399.5221"
   inkscape:cy="400.4779"
   inkscape:window-width="1920"
   inkscape:window-height="1017"
   inkscape:window-x="-8"
   inkscape:window-y="-8"
   inkscape:window-maximized="1"
   inkscape:current-layer="Capa_1" />
<path
   d="M332.797,13.699c-1.489-1.306-3.608-1.609-5.404-0.776L2.893,163.695c-1.747,0.812-2.872,2.555-2.893,4.481  s1.067,3.693,2.797,4.542l91.833,45.068c1.684,0.827,3.692,0.64,5.196-0.484l89.287-66.734l-70.094,72.1  c-1,1.029-1.51,2.438-1.4,3.868l6.979,90.889c0.155,2.014,1.505,3.736,3.424,4.367c0.513,0.168,1.04,0.25,1.561,0.25  c1.429,0,2.819-0.613,3.786-1.733l48.742-56.482l60.255,28.79c1.308,0.625,2.822,0.651,4.151,0.073  c1.329-0.579,2.341-1.705,2.775-3.087L334.27,18.956C334.864,17.066,334.285,15.005,332.797,13.699z"
   id="path203" />
<path
   style="fill:#ffffff;stroke-width:0.955795"
   d="m 304.89845,768.26557 c -1.94624,-0.99973 -4.00717,-3.11742 -4.92794,-5.06366 -2.06806,-4.37132 -18.89955,-222.24001 -17.47054,-226.14066 0.49121,-1.34081 38.74256,-41.3678 85.00302,-88.94888 73.7786,-75.8848 89.31717,-92.19121 83.5485,-87.67709 -7.65744,5.99213 -211.40216,157.87953 -213.53656,159.187 -1.57706,0.96606 -4.22661,1.75809 -5.88789,1.76005 -4.36015,0.005 -224.4434414,-107.95714 -228.0428106,-111.86686 -3.69948139,-4.01847 -3.69948139,-10.22129 0,-14.28196 C 5.6004676,393.02043 96.816946,350.25792 395.21749,211.63492 609.17014,112.24246 785.35691,30.694448 786.74365,30.417101 c 3.44625,-0.68925 9.2093,2.219813 10.90897,5.506612 0.76537,1.480069 1.39207,4.110244 1.39267,5.844832 9.5e-4,3.070657 -201.35987,646.150045 -204.28544,652.419315 -1.72017,3.68619 -5.53974,5.93161 -10.08994,5.93161 -2.289,0 -24.64312,-10.23267 -76.23514,-34.89689 -69.12203,-33.04467 -73.07995,-34.80757 -74.56911,-33.21386 -0.86493,0.92566 -26.96615,31.1454 -58.00269,67.15496 -31.03654,36.00956 -57.48811,66.4567 -58.78127,67.66031 -3.23022,3.00655 -8.03081,3.57458 -12.18325,1.44158 z"
   id="path210"
   transform="scale(0.418125)" /></svg>
