<?xml version="1.0" encoding="UTF-8" standalone="no"?>
<!-- Uploaded to: SVG Repo, www.svgrepo.com, Generator: SVG Repo Mixer Tools -->

<svg
   fill="#000000"
   height="800px"
   width="800px"
   version="1.1"
   id="Capa_1"
   viewBox="0 0 493.497 493.497"
   xml:space="preserve"
   sodipodi:docname="white mail.svg"
   inkscape:version="1.2.2 (732a01da63, 2022-12-09)"
   xmlns:inkscape="http://www.inkscape.org/namespaces/inkscape"
   xmlns:sodipodi="http://sodipodi.sourceforge.net/DTD/sodipodi-0.dtd"
   xmlns="http://www.w3.org/2000/svg"
   xmlns:svg="http://www.w3.org/2000/svg"><defs
   id="defs7" /><sodipodi:namedview
   id="namedview5"
   pagecolor="#505050"
   bordercolor="#ffffff"
   borderopacity="1"
   inkscape:showpageshadow="0"
   inkscape:pageopacity="0"
   inkscape:pagecheckerboard="1"
   inkscape:deskcolor="#505050"
   showgrid="false"
   inkscape:zoom="1.04625"
   inkscape:cx="399.5221"
   inkscape:cy="400.4779"
   inkscape:window-width="1920"
   inkscape:window-height="1017"
   inkscape:window-x="-8"
   inkscape:window-y="-8"
   inkscape:window-maximized="1"
   inkscape:current-layer="Capa_1" />
<path
   d="M444.556,85.218H48.942C21.954,85.218,0,107.171,0,134.16v225.177c0,26.988,21.954,48.942,48.942,48.942h395.613  c26.988,0,48.941-21.954,48.941-48.942V134.16C493.497,107.171,471.544,85.218,444.556,85.218z M460.87,134.16v225.177  c0,2.574-0.725,4.924-1.793,7.09L343.74,251.081l117.097-117.097C460.837,134.049,460.87,134.096,460.87,134.16z M32.628,359.336  V134.16c0-0.064,0.033-0.11,0.033-0.175l117.097,117.097L34.413,366.426C33.353,364.26,32.628,361.911,32.628,359.336z   M251.784,296.902c-2.692,2.691-7.378,2.691-10.07,0L62.667,117.846h368.172L251.784,296.902z M172.827,274.152l45.818,45.819  c7.512,7.511,17.493,11.645,28.104,11.645c10.61,0,20.592-4.134,28.104-11.645l45.82-45.819l101.49,101.499H71.327L172.827,274.152z  "
   id="path2" />
<path
   style="fill:#ffffff;stroke-width:0.955795"
   d="M 60.215054,658.97956 C 44.556772,654.9449 28.420828,644.61005 18.190686,632.06353 11.947817,624.40711 5.3577749,611.14447 2.6148969,600.71685 L 0.47789725,592.59259 V 400 207.40741 L 2.6148969,199.28315 C 5.3577749,188.85553 11.947817,175.59289 18.190686,167.93647 28.548832,155.23296 44.680443,144.97724 60.606894,140.97023 68.082439,139.08942 71.887131,139.0681 400,139.0681 c 328.11287,0 331.91756,0.0213 339.39311,1.90213 15.92645,4.00701 32.05805,14.26273 42.41621,26.96624 6.24287,7.65642 12.83291,20.91906 15.57578,31.34668 l 2.137,8.12426 V 400 592.59259 l -2.137,8.12426 c -2.74287,10.42762 -9.33291,23.69026 -15.57578,31.34668 -10.35816,12.70351 -26.48976,22.95924 -42.41621,26.96624 -7.47768,1.88134 -11.19125,1.90156 -339.78495,1.8495 -325.156907,-0.0515 -332.377149,-0.0919 -339.393106,-1.89971 z M 684.34886,608.60007 c 0,-0.39542 -36.98182,-37.69888 -82.18182,-82.89659 l -82.18182,-82.17765 -41.35462,41.14529 c -40.37265,40.16831 -41.54752,41.24028 -49.47887,45.14535 -11.92169,5.86975 -18.18285,7.16826 -31.98785,6.634 -9.19837,-0.35599 -12.79078,-0.92741 -17.94433,-2.8543 -13.14997,-4.9167 -15.58119,-6.9784 -58.32322,-49.45855 l -40.87189,-40.62145 -82.18665,82.18248 c -45.20266,45.20037 -82.18665,82.506 -82.18665,82.90142 0,0.39541 127.95698,0.71893 284.34886,0.71893 156.39188,0 284.34886,-0.32352 284.34886,-0.71893 z M 149.81896,501.0771 c 51.12407,-51.12204 92.95284,-93.38092 92.95284,-93.9086 0,-0.5277 -42.79882,-43.75433 -95.10849,-96.05919 l -95.108493,-95.09975 0.245889,186.85782 c 0.24885,189.10773 0.285161,191.1589 3.38402,191.1589 0.374765,0 42.510165,-41.82712 93.634234,-92.94918 z m 596.36365,89.05422 c 0.86797,-2.49061 1.1537,-47.61884 1.19475,-188.69583 l 0.0539,-185.42233 -95.10155,95.09795 c -52.30586,52.30388 -95.10155,95.52805 -95.10155,96.05372 0,1.45305 185.75854,186.90813 186.85645,186.55117 0.52644,-0.17115 1.47052,-1.78426 2.09796,-3.58468 z M 552.34643,337.49748 699.16291,190.681 H 400.00078 100.83866 l 146.23539,146.31298 c 80.42946,80.47214 147.0956,146.70443 148.14698,147.18286 1.05137,0.47843 3.80099,0.705 6.11026,0.50349 4.18029,-0.36477 4.84141,-1.00913 151.01514,-147.18285 z"
   id="path182"
   transform="scale(0.61687125)" /><path
   style="fill:#ffffff;stroke-width:0.955795"
   d="M 64.516129,659.04363 C 54.091559,657.80464 38.558421,650.01085 27.072357,640.25613 16.957983,631.66635 7.2264679,615.35171 2.9289116,599.78026 0.96546065,592.66604 0.9557945,591.68733 0.9557945,400 c 0,-191.0508 0.016028,-192.68966 1.9538403,-199.78026 2.781942,-10.17934 10.3970512,-25.20691 16.4989312,-32.55881 8.611052,-10.3751 22.647869,-19.82153 36.98331,-24.88886 l 6.212664,-2.19607 84.10992,-0.64459 c 108.32327,-0.83015 398.24781,-0.83015 506.57108,0 l 84.10992,0.64459 6.21266,2.18334 c 14.41158,5.06472 29.61745,15.41937 37.85985,25.78118 5.41451,6.80677 13.06437,22.31923 15.62239,31.67922 1.93782,7.0906 1.95385,8.72946 1.95385,199.78026 0,191.0508 -0.0161,192.68966 -1.95385,199.78026 -2.55802,9.35999 -10.20788,24.87245 -15.62239,31.67922 -8.21679,10.3296 -23.29687,20.61337 -37.85985,25.81828 l -6.21266,2.22045 -333.57228,0.11351 C 220.35842,659.67413 67.670251,659.41851 64.516129,659.04363 Z M 684.34886,608.23036 c 0,-0.59876 -36.97702,-38.12564 -82.17117,-83.39307 l -82.17116,-82.30443 -36.58631,36.38885 c -43.73067,43.49468 -46.88783,46.39028 -55.07792,50.51474 -10.10544,5.08902 -15.40752,6.28637 -27.83707,6.28637 -17.60126,0 -27.54675,-3.58043 -40.38896,-14.54022 -3.82261,-3.26229 -23.43167,-22.29146 -43.57569,-42.28704 l -36.62549,-36.3556 -82.13198,82.33066 c -45.17259,45.28187 -82.13197,82.80715 -82.13197,83.38952 0,0.77224 76.96951,1.05886 284.34886,1.05886 212.06151,0 284.34886,-0.27676 284.34886,-1.08864 z M 150.27164,501.41676 c 50.87509,-50.93525 92.50016,-93.32505 92.50016,-94.19957 0,-1.56322 -189.734526,-192.61851 -190.360407,-191.68553 -0.702587,1.04733 0.809842,374.33961 1.524794,376.34409 0.421878,1.18279 1.457403,2.15053 2.301168,2.15053 0.843765,0 43.159195,-41.67428 94.034285,-92.60952 z m 595.86266,90.93688 c 0.45051,-0.91995 0.91663,-86.18877 1.03584,-189.48626 l 0.21675,-187.81362 -95.07935,95.30265 c -53.85523,53.98171 -95.07934,96.03033 -95.07934,96.981 0,1.97113 184.7941,186.68887 186.76605,186.68887 0.72651,0 1.68954,-0.75268 2.14005,-1.67264 z M 409.26937,480.11245 c 3.31284,-2.7243 70.10936,-68.95347 148.43672,-147.17593 L 700.11947,190.71384 400,190.72225 99.880526,190.73066 247.23449,337.89814 394.58846,485.06571 h 4.32879 c 3.80281,0 5.06067,-0.60186 10.35212,-4.95326 z"
   id="path184"
   transform="scale(0.61687125)" /><path
   style="fill:#ffffff;stroke-width:0.955795"
   d="M 64.516129,659.04428 C 49.581019,657.26751 27.652157,643.70784 17.38978,629.90382 12.009288,622.66646 5.506982,609.12145 2.9289116,599.78026 0.96546065,592.66604 0.9557945,591.68733 0.9557945,400 c 0,-191.68733 0.009666,-192.66604 1.9731171,-199.78026 2.5780704,-9.34119 9.0803764,-22.8862 14.4608684,-30.12356 10.38183,-13.9647 31.105881,-26.72372 47.27875,-29.10774 9.250364,-1.36358 446.08833,-2.26073 572.36851,-1.17548 100.33175,0.86224 101.36908,0.89069 106.97152,2.93437 14.13261,5.15535 29.41142,15.67578 37.45941,25.79319 5.41451,6.80677 13.06437,22.31923 15.62239,31.67922 1.93782,7.0906 1.95385,8.72946 1.95385,199.78026 0,191.0508 -0.0161,192.68966 -1.95385,199.78026 -2.55802,9.35999 -10.20788,24.87245 -15.62239,31.67922 -7.98627,10.03981 -22.88069,20.33172 -37.45941,25.88411 l -5.65731,2.15462 -334.05017,0.11416 c -183.7276,0.0628 -336.630829,-0.19286 -339.784951,-0.56809 z M 683.87048,608.364 c 0.32462,-0.52525 -36.40447,-38.05213 -81.6202,-83.39308 l -82.2104,-82.43806 -36.60298,36.38885 c -43.7716,43.51556 -46.90993,46.393 -55.0946,50.51474 -10.10544,5.08902 -15.40752,6.28637 -27.83707,6.28637 -17.07313,0 -27.21065,-3.49202 -39.36976,-13.5615 -3.33179,-2.75921 -22.97666,-21.80281 -43.65527,-42.31912 l -37.59747,-37.30238 -82.26829,82.5221 c -62.19701,62.38888 -81.93959,82.73016 -80.92105,83.37494 1.94046,1.22841 566.41767,1.15589 567.17709,-0.0728 z M 150.22421,501.3905 c 50.90117,-50.94969 92.54759,-93.29513 92.54759,-94.10099 0,-0.80585 -42.79908,-44.38857 -95.10907,-96.85047 l -95.109079,-95.38528 0.330593,187.33573 c 0.181826,103.03464 0.665483,188.30346 1.074794,189.48626 0.40931,1.18279 1.413209,2.15053 2.230886,2.15053 0.817678,0 43.133106,-41.6861 94.034286,-92.63578 z m 595.90595,90.96314 c 0.44824,-0.91995 0.91966,-86.18877 1.04761,-189.48626 l 0.23263,-187.81362 -95.0911,95.38528 c -52.30011,52.4619 -95.0911,96.08056 -95.0911,96.93034 0,1.85136 184.94612,186.6569 186.7989,186.6569 0.70845,0 1.65483,-0.75268 2.10306,-1.67264 z M 410.25025,479.13487 c 3.82473,-3.26196 70.60997,-69.48915 148.41164,-147.17153 L 700.11947,190.72264 400,190.72733 99.880526,190.73201 247.23982,337.89889 394.59911,485.06571 h 4.34854 c 3.94654,0 4.99143,-0.54828 11.3026,-5.93084 z"
   id="path186"
   transform="scale(0.61687125)" /><path
   style="fill:#ffffff;stroke-width:0.955795"
   d="m 238.78724,138.35127 c 89.01518,-0.13447 234.39152,-0.13447 323.05854,1e-5 88.66702,0.13447 15.83642,0.2445 -161.84578,0.24449 -177.6822,0 -250.22794,-0.11003 -161.21276,-0.2445 z"
   id="path190"
   transform="scale(0.61687125)" /><path
   style="fill:#ffffff;stroke-width:0.955795"
   d="M 64.516129,659.00291 C 48.909757,657.03724 27.931785,644.08398 17.38978,629.90382 12.009288,622.66646 5.506982,609.12145 2.9289116,599.78026 0.96546065,592.66604 0.9557945,591.68733 0.9557945,400 c 0,-191.0508 0.016028,-192.68966 1.9538403,-199.78026 2.6521965,-9.70459 10.2816612,-25.0346 15.9095972,-31.96742 8.639776,-10.64298 22.893806,-20.31177 37.572644,-25.48627 l 6.212664,-2.19005 84.10992,-0.64459 c 110.32681,-0.84551 400.05145,-0.8277 507.04898,0.0312 83.72266,0.67204 84.64568,0.70031 90.24512,2.76372 14.23212,5.24457 29.42585,15.71495 37.45941,25.81422 5.41451,6.80677 13.06437,22.31923 15.62239,31.67922 1.93782,7.0906 1.95385,8.72946 1.95385,199.78026 0,191.0508 -0.0161,192.68966 -1.95385,199.78026 -2.55802,9.35999 -10.20788,24.87245 -15.62239,31.67922 -7.98627,10.03981 -22.88069,20.33172 -37.45941,25.88411 l -5.65731,2.15462 -334.05017,0.1135 c -183.7276,0.0624 -336.630829,-0.21154 -339.784951,-0.6088 z M 682.38864,608.47527 c 2.13601,-0.59603 -4.86369,-7.88513 -79.99037,-83.2978 l -82.33122,-82.64461 -36.61656,36.38885 c -43.80501,43.53262 -46.92794,46.39523 -55.10819,50.51474 -10.10544,5.08902 -15.40752,6.28637 -27.83707,6.28637 -17.07313,0 -27.21065,-3.49202 -39.36976,-13.5615 -3.33179,-2.75921 -22.95816,-21.78444 -43.61415,-42.27829 l -37.55634,-37.26154 -58.80115,58.73704 c -82.10169,82.01219 -105.27053,105.96778 -103.54408,107.06014 1.59796,1.01107 561.14731,1.06715 564.76889,0.0566 z M 150.18815,501.32825 c 50.92101,-50.98393 92.58365,-93.17974 92.58365,-93.76849 0,-1.24099 -78.73138,-81.2252 -144.801563,-147.10576 l -45.530926,-45.40024 0.417723,187.33573 c 0.229748,103.03464 0.739132,188.30346 1.131964,189.48626 0.392832,1.18279 1.367021,2.15053 2.164864,2.15053 0.797844,0 43.113273,-41.71411 94.034288,-92.69803 z m 595.91104,91.02539 c 0.4312,-0.91995 0.92895,-86.18877 1.10611,-189.48626 l 0.3221,-187.81362 -46.95121,46.83393 c -68.56082,68.38957 -143.55508,144.67553 -143.18835,145.65466 1.29313,3.45258 184.80879,186.48393 186.97738,186.48393 0.52248,0 1.30278,-0.75268 1.73397,-1.67264 z M 410.25025,479.09921 c 3.82473,-3.28158 70.60997,-69.504 148.41164,-147.16094 L 700.11947,190.74384 400,190.74221 99.880526,190.74059 247.27115,337.90315 394.66178,485.06571 h 4.31721 c 3.91536,0 4.96449,-0.55536 11.27126,-5.9665 z"
   id="path192"
   transform="scale(0.61687125)" /></svg>
